<svg id="Capa_1" enable-background="new 0 0 64 64" height="512" viewBox="0 0 64 64" width="512" xmlns="http://www.w3.org/2000/svg"><path d="m18 8h18c.552 0 1-.448 1-1v-3h-20v3c0 .552.448 1 1 1z"/><path d="m24 34h2v2h-2z"/><path d="m35.1 44.066-5.653 2.834c-.139.067-.292.101-.447.1-.552 0-1-.447-1-1 0-.155.036-.309.105-.447l2.829-5.653c.048-.096.111-.184.188-.26l12.878-12.882v-19.758c0-1.657-1.343-3-3-3h-2v3c0 1.657-1.343 3-3 3h-18c-1.657 0-3-1.343-3-3v-3h-2c-1.657 0-3 1.343-3 3v50c0 1.657 1.343 3 3 3h28c1.657 0 3-1.343 3-3v-21.758l-8.636 8.636c-.077.077-.166.14-.264.188zm-3.1-14.066h-14v-2h14zm-17 14v-2h12v2zm12 2v2h-8v-2zm-10 0v2h-2v-2zm5-8v-6h6v6zm12-22h6v2h-6zm0 4h6v2h-6zm0 4h6v2h-6zm-20-8h18v10h-18zm0 12h2v2h-2zm0 4h6v6h-6zm25 25c0 .552-.448 1-1 1h-22c-.552 0-1-.448-1-1s.448-1 1-1h22c.552 0 1 .448 1 1z"/><path d="m16 34h2v2h-2z"/><path d="m16 18h14v6h-14z"/><path d="m59.406 18.423c.781-.781.781-2.048 0-2.829s-2.048-.781-2.829 0l-2.828 2.829 2.828 2.828z"/><path d="m32.65 40.936-1.414 2.828 2.828-1.414 18.977-18.976.001-.001.001-.001 1.413-1.414-1.414-1.414z"/><path d="m55.163 26.908-4.95 4.95c-.397.384-.408 1.017-.024 1.414s1.017.408 1.414.024c.008-.008.016-.016.024-.024l5.657-5.657c.39-.39.39-1.024 0-1.414l-1.742-1.743-1.415 1.415z"/></svg>