<?xml version="1.0" encoding="utf-8"?>
<!-- Svg Vector Icons : http://www.onlinewebfonts.com/icon -->
<!DOCTYPE svg PUBLIC "-//W3C//DTD SVG 1.1//EN" "http://www.w3.org/Graphics/SVG/1.1/DTD/svg11.dtd">
<svg version="1.1" xmlns="http://www.w3.org/2000/svg" xmlns:xlink="http://www.w3.org/1999/xlink" x="0px" y="0px" viewBox="0 0 1000 1000" enable-background="new 0 0 1000 1000" xml:space="preserve">
<metadata> Svg Vector Icons : http://www.onlinewebfonts.com/icon </metadata>
<g><g transform="translate(0.000000,511.000000) scale(0.100000,-0.100000)"><path d="M3751.7,4352.4c-757.6-116.1-1492.8-439.9-2073.2-912.4c-179.2-148.7-505.1-476.6-649.7-655.8C578.7,2220.2,271.2,1527.7,147,788.5C94,483,83.9-85.2,126.6-413.1c118.1-940.9,515.2-1771.8,1171-2452c653.7-676.1,1468.3-1105.8,2413.3-1268.8c313.6-52.9,1081.4-48.9,1395,10.2c759.6,138.5,1456.1,460.3,2022.3,932.7l138.5,114.1l-89.6,85.5c-101.8,95.7-197.5,232.2-246.4,346.2l-32.6,77.4l-126.3-112c-128.3-112-478.6-360.5-509.1-360.5c-8.1,0,14.3,48.9,48.9,105.9c105.9,181.2,403.2,796.3,403.2,837c0,36.7-177.2,509.1-297.3,790.2l-57.1,134.4l-191.4,75.3c-421.6,165-1038.6,313.6-1409.3,342.2l-71.3,6.1v274.9v274.9l596.7,6.1c325.8,2,594.7,12.2,594.7,20.4c0,8.1-69.3,142.6-150.7,299.4l-150.7,285.1l-450.1,6.1l-450.1,4.1v305.5c0,169,6.1,305.5,16.3,305.5c52.9,0,468.4,44.8,496.9,53c30.5,8.1,28.5,22.4-14.3,150.7c-26.5,77.4-63.1,207.7-81.5,293.3l-34.6,152.7l-191.4-12.2l-191.4-12.2V2713v1054.9l140.5-14.3c217.9-20.4,454.2-73.3,515.3-114l52.9-38.7l114,169c61.1,93.7,154.8,215.9,207.7,274.9c52.9,57,91.6,107.9,87.6,112c-44.8,42.8-556,167-851.3,207.7C4639.6,4403.3,4057.1,4399.3,3751.7,4352.4z M4067.3,2723.2V1684.6h-55c-240.3,0-908.3,175.1-1313.6,344.2l-156.8,65.2l71.3,167c110,254.6,281,570.2,446,818.7c175.1,260.7,403.2,549.9,466.4,590.6c46.8,28.5,340.1,87.6,466.4,89.6l75.4,2V2723.2z M2214.1,2861.7c-85.5-171.1-171.1-350.3-191.4-399.2l-32.6-89.6l-97.7,57c-52.9,30.5-126.3,75.3-165,101.8l-67.2,46.8l148.7,146.6c140.5,136.4,521.4,446,549.9,446C2366.8,3171.2,2301.6,3030.7,2214.1,2861.7z M1542,1920.8c128.3-75.4,236.2-140.5,238.3-142.6c2,0-20.4-93.7-46.8-205.7c-57-238.3-122.2-670-140.5-951.1l-14.3-199.6H1151H721.3l14.3,128.3c20.4,189.4,110,568.2,179.2,765.7c107.9,303.4,342.1,769.8,380.8,751.5C1301.7,2063.4,1413.7,1998.2,1542,1920.8z M2731.4,1354.6c372.7-134.4,818.7-240.3,1230.1-291.2l105.9-14.3V735.5V421.9h-926.6h-926.6v148.7c0,199.6,97.7,851.3,136.5,914.4c4.1,8.1,42.8,2,83.5-16.3C2474.8,1450.4,2609.2,1399.4,2731.4,1354.6z M1611.3-254.2c57-397.1,105.9-674.1,156.8-867.6c32.6-126.3,59.1-238.3,59.1-248.5c0-10.2-50.9-46.8-112-81.5c-61.1-34.6-193.5-122.2-295.3-195.5c-99.8-71.3-185.3-130.3-189.4-130.3c-18.3,0-244.4,476.5-307.5,651.7c-79.4,219.9-167,594.7-187.4,800.4L721.3-189h439.9h439.9L1611.3-254.2z M4067.3-462v-270.8l-193.5-14.3c-409.3-28.5-945-146.6-1323.8-295.3c-83.5-32.6-152.7-57-152.7-55c0,4.1-18.3,77.4-40.7,167c-44.8,167-122.2,617.1-122.2,696.5v44.8h916.4h916.4V-462z M4067.3-2451.7v-1103.8l-105.9,14.3c-59.1,8.1-162.9,22.4-230.1,34.6l-122.2,20.4l-146.6,207.7c-203.7,293.3-395.1,608.9-556,918.5c-136.5,262.7-315.7,661.9-301.4,674.1c18.3,16.3,411.4,154.8,545.8,189.4c272.9,75.4,633.4,134.4,851.3,144.6l65.2,2.1V-2451.7z M4987.8-1411c126.3-20.4,344.2-71.3,484.7-110c270.8-73.3,684.3-226.1,702.6-258.6c16.3-26.5-319.7-714.8-478.6-975.5c-185.3-307.5-446-690.4-484.7-710.8c-36.7-18.3-415.5-83.5-490.8-83.5h-42.8v1089.6c0,1057,2,1089.6,38.7,1089.6C4737.3-1370.2,4859.5-1388.6,4987.8-1411z M2132.6-2178.7c89.6-209.8,338.1-694.5,421.6-826.8c28.5-44.8,46.8-83.5,42.8-87.6c-14.3-12.2-384.9,234.2-533.6,358.4c-79.4,65.2-215.9,191.4-303.4,279l-158.9,160.9l46.8,42.8c52.9,48.9,366.6,268.8,384.9,270.8C2038.9-1981.2,2083.7-2070.8,2132.6-2178.7z"/><path d="M7484.6,4169.1c-780-162.9-1376.7-743.3-1568.1-1519.3c-55-232.2-61.1-674.1-10.2-898.1c71.3-315.7,116.1-413.4,513.2-1136.4c444-810.5,782-1564,1142.5-2545.7c165-452.1,197.6-499,334-499c130.4,0,165,48.9,315.7,468.4c382.9,1054.9,814.6,2003.9,1295.2,2841c197.5,344.2,279,525.4,348.3,780c38.7,132.4,44.8,211.8,44.8,523.4c0,340.1-4.1,380.8-55,549.9c-270.9,898.1-1050.9,1480.6-1977.5,1474.5C7751.4,4207.8,7584.5,4191.5,7484.6,4169.1z M8111.9,2979.8c250.5-67.2,450.1-234.2,564.1-476.5c59.1-126.3,65.2-152.7,65.2-340.1c-2-283.1-48.9-399.2-242.3-592.6s-309.6-240.3-592.6-242.3c-187.4,0-213.8,6.1-340.1,65.2c-382.9,181.3-576.3,576.3-474.5,969.4c44.8,169,101.8,270.9,222,393.1C7529.5,2969.6,7830.9,3055.2,8111.9,2979.8z"/></g></g>
</svg>