<?xml version="1.0" standalone="no"?>
<!DOCTYPE svg PUBLIC "-//W3C//DTD SVG 20010904//EN"
 "http://www.w3.org/TR/2001/REC-SVG-20010904/DTD/svg10.dtd">
<svg version="1.0" xmlns="http://www.w3.org/2000/svg"
 width="512.000000pt" height="512.000000pt" viewBox="0 0 512.000000 512.000000"
 preserveAspectRatio="xMidYMid meet">
<metadata>
Created by potrace 1.11, written by Peter Selinger 2001-2013
</metadata>
<g transform="translate(0.000000,512.000000) scale(0.100000,-0.100000)"
fill="#000000" stroke="none">
<path d="M2378 5115 c-2 -1 -39 -5 -82 -9 -44 -4 -82 -8 -85 -10 -3 -2 -31 -7
-61 -11 -238 -29 -617 -159 -832 -286 -27 -16 -48 -25 -48 -21 0 4 -4 2 -8 -3
-4 -6 -45 -35 -92 -65 -87 -57 -257 -185 -299 -226 -13 -13 -27 -21 -32 -18
-5 3 -8 1 -7 -4 2 -5 -33 -45 -77 -89 -103 -103 -175 -182 -175 -193 0 -5 -3
-10 -7 -12 -20 -8 -165 -211 -213 -296 -8 -15 -17 -29 -20 -32 -16 -16 -144
-292 -178 -385 -119 -325 -162 -577 -157 -935 3 -190 16 -321 50 -485 10 -44
19 -89 21 -99 8 -40 67 -224 99 -306 143 -370 386 -718 690 -986 364 -322 776
-519 1270 -608 17 -3 57 -9 90 -12 33 -4 64 -9 69 -12 15 -9 418 -10 496 -1
144 16 176 21 275 40 271 53 576 170 788 301 43 26 80 48 83 48 2 0 36 23 74
50 39 28 76 48 82 44 7 -4 8 -3 4 4 -4 6 18 29 51 54 32 23 65 51 74 60 9 10
19 18 21 18 12 0 334 333 325 336 -3 1 45 64 70 91 12 12 20 23 18 23 -3 0 17
33 44 73 63 93 81 126 156 277 76 152 170 406 191 514 2 12 6 32 9 46 3 14 7
35 10 48 2 13 6 31 9 40 3 9 8 35 11 57 3 23 7 51 10 64 19 102 27 466 13 611
-99 994 -770 1845 -1712 2169 -107 37 -264 79 -356 95 -19 3 -46 8 -60 11 -14
3 -47 8 -75 11 -27 3 -61 8 -75 11 -25 6 -446 14 -452 8z"/>
</g>
</svg>
